<svg fill="none" height="32" viewBox="0 0 32 32" width="32" xmlns="http://www.w3.org/2000/svg"><path clip-rule="evenodd" d="m10.502.00000987c1.7992-.0039047 3.5171 1.15096013 4.8888 2.19607013.9994.77254 1.9187 1.62737 2.7579 2.55426-.1739-.47049-.3341-.94781-.4342-1.44017-.0644-.46825-.283-1.22454.4202-2.0187 2.6744-2.76285 5.6956 3.66677 6.4382 5.35546-.0883-.74224-.1374-1.42923.0685-2.01935.1273-.36476.3106-.68742.5704-.85445.3146-.21432.7954-.31937 1.1794-.24472.7803.16582 1.1139.56842 1.4209.88504 1.4645 1.68563 2.1331 4.06982 2.6301 6.19375.6447 2.8246.9097 5.7353.649 8.6731-.3115 3.7542-2.074 7.6043-5.2393 10.0105-2.7501 2.1398-6.3916 3.0604-9.8415 2.5883-.4125-.0536-.784-.2694-1.0322-.6041-.2481-.3344-.3526-.7603-.291-1.1798.0616-.4196.2841-.7972.6179-1.0458.3338-.2488.7516-.3482 1.1621-.2804 2.6608.4569 5.4952-.155 7.6943-1.7485 2.5225-1.7895 4.0829-4.788 4.4651-8.007.4758-3.8572.2725-8.1968-1.2406-11.81206-.2509-.5931-1.0978-1.98443-1.241-1.66734-.1901.42089-.1729 1.57601-.1313 2.29607.1116 1.90267.2756 3.82433.4545 5.81373.0617.7492-1.0933.9125-1.2406.1754-.4626-2.3652-1.0371-4.20117-2.345-6.88245-.4882-1.12339-1.247-2.23144-1.8911-3.19358-.1974-.29317-1.087-1.7488-1.5468-1.21318-.0921.10718.0082.29178.0359.42823.237 1.18519.8119 2.31394 1.2507 3.43088.6755 2.08935 1.1067 3.9952 1.5933 6.2743.1299.7416-1.0229 1.0022-1.2232.2766-.4791-1.7748-1.5768-3.28119-2.5959-4.77783-1.6745-2.44863-3.9707-4.96467-6.7495-6.1728-.391-.1693-1.1583-.52216-1.5883-.26436-1.03651.6352 2.7652 3.77468 3.183 4.20648 1.4924 1.52 2.8173 3.33449 3.5523 5.41901.2722.7596-.6206 1.3115-1.1755.7267-1.699-1.7908-3.424-3.78922-5.79093-4.69361-1.74235-.63545-3.69489-.72492-5.1892.05875-.84733.4375-1.5079 1.15537-1.91371 2.04157-1.21162 2.29679.15826 6.48279 2.01314 6.70029.41628.0012.76246-.0888.92316-.2142.15749-.115.2674-.3085.31937-.6812.09519-.7444-.11357-1.7448-.37523-2.692-.22862-1.044.47099-1.6228.93962-1.8558 3.08418-1.48455 6.12788 3.259 7.22648 5.4745 1.3235 2.7779 2.5709 5.9074 1.5824 9.4139-.4192 1.3697-1.4093 2.8664-2.9647 3.5607-3.59783 1.6905-7.34568-.5542-9.23137-2.9815-1.00895-1.267-1.80446-2.7026-2.15102-4.407-.160155-.8506-.210024-1.8036.12532-2.7919.22776-.7177.74697-1.3815 1.36643-1.8309-.95104-.8317-1.40658-2.0515-1.766671-3.0868-.506629-1.7352-.48728-3.6799.325081-5.39539.5612-1.20432 1.55059-2.26495 2.76215-2.86448 2.56995-1.28057 5.69182-.67845 8.03748.8147-1.0332-.98745-2.25623-1.87767-3.06878-3.07117-.34872-.49182-.68088-1.34887-.40966-2.15124.1199-.40317.3961-.832131.81024-1.09065.40268-.2567388.8435-.32794348 1.2049-.33386013zm-6.15518 18.99749013c.22225-.1048.35249-.1286.62822-.0625 1.77389.5215 4.3683 4.4156 8.03546 3.611-.0872 1.3613-.363 3.3015-1.757 3.9481-1.81642.94-4.23662-.1765-5.83867-2.0759-1.61769-1.7585-2.55769-4.9228-1.06801-5.4207zm3.68462-3.435c.13648-1.1563-.0591-2.1185-.28659-3.0421.42955.0331.84556.298 1.17962.551 1.34343 1.0155 2.35913 2.5546 3.08343 4.0629.5416 1.1343.8576 2.3855.9738 3.6163-2.2188.5302-3.42704-1.5292-5.97105-3.2718.63792-.4992.94251-1.295 1.02079-1.9163z" fill="#000" fill-rule="evenodd"/></svg>